<?xml version="1.0" encoding="utf-8"?>
<!-- Generator: Adobe Illustrator 16.0.0, SVG Export Plug-In . SVG Version: 6.00 Build 0)  -->
<!DOCTYPE svg PUBLIC "-//W3C//DTD SVG 1.1//EN" "http://www.w3.org/Graphics/SVG/1.1/DTD/svg11.dtd">
<svg version="1.1" xmlns="http://www.w3.org/2000/svg" xmlns:xlink="http://www.w3.org/1999/xlink" x="0px" y="0px" width="1000px"
	 height="792px" viewBox="0 0 1000 792" enable-background="new 0 0 1000 792" xml:space="preserve">
<g id="Layer_4">
</g>
<g id="Layer_3">
	<g>
		<path d="M216.763,247.328c150.207,0,147.232,0,156.066,0c50.44,0,100.214,42.082,100.367,102.277
			c0.143,56.229-43.766,91.072-72.426,98.043c0.85,0,38.434,66.821,38.434,66.821l172.231-291.205l179.451,305.297
			c5.445,9.933,8.78,15.589,11.261,22.733c5.312,15.297-8.84,25.601-18.696,25.707c-9.721,0.106-14.553-3.56-24.432-8.924
			l-108.14-62.035l-39.942-74.36l108.422,62.958L610.584,310.795c0,0-139.269,237.542-144.009,244.642
			c-8.108,12.146-13.384,21.617-28.361,21.617c-14.554,0-21.388-9.614-29.002-21.298c-1.699-3.399-89.762-148.86-89.762-148.86
			c32.134,0.107,28.887,0.07,54.812,0.07c21.103,0,54.035-18.554,54.035-55.664c0-22.237-17.067-56.37-57.857-56.37
			c-45.25,0-126.337,0-126.337,0L216.763,247.328z"/>
		<path d="M217.118,351.021l47.731,83.423l-0.255,119.845c0,0,0.53,22.456-24.151,22.878c-0.284-0.282-23.729,1.833-23.729-22.244
			C216.715,530.847,217.118,351.021,217.118,351.021z"/>
		<path d="M264.85,434.444l-0.142,118.975c0,0,0.417,23.326-24.265,23.748"/>
	</g>
</g>
</svg>
